<svg xmlns="http://www.w3.org/2000/svg" xmlnsXlink="http://www.w3.org/1999/xlink" xmlnsSerif="http://www.serif.com/" width="100%" height="100%" viewBox="0 0 100 100" xmlSpace="preserve" style="fill-rule:evenodd;clip-rule:evenodd;stroke-linejoin:round;stroke-miterlimit:2;">
    <g id="Artboard1" transform="matrix(2,0,0,2,0,0)">
        <rect x="0" y="0" width="50" height="50" style="fill:none;"></rect>
        <g id="_001-welfare.svg" serifId="001-welfare.svg" transform="matrix(0.0772241,0,0,0.0772241,25,25)">
            <g transform="matrix(1,0,0,1,-256,-256)">
                <g>
                    <path d="M424,377.472L424,360L408,360L408,376L392,376L392,400C392,413.232 402.768,424 416,424C420.416,424 424,427.592 424,432L424,440L416,440C411.584,440 408,436.408 408,432L408,424L392,424L392,432C392,442.416 398.712,451.216 408,454.528L408,472L424,472L424,456L440,456L440,432C440,418.768 429.232,408 416,408C411.584,408 408,404.408 408,400L408,392L416,392C420.416,392 424,395.592 424,400L424,408L440,408L440,400C440,389.584 433.288,380.784 424,377.472Z" style="fill-rule:nonzero;"></path>
                    <path d="M416,328C370.176,328 332.464,363.216 328.408,408L304,408C299.584,408 296,404.408 296,400L296,360.488C335.656,345.256 364.448,308.168 367.592,264L441.472,264C444.784,273.288 453.584,280 464,280C477.232,280 488,269.232 488,256C488,242.768 477.232,232 464,232C453.584,232 444.784,238.712 441.472,248L367.592,248C364.448,203.832 335.656,166.744 296,151.512L296,128C296,123.592 299.584,120 304,120L368,120L368,168L480,168L480,88L507.312,88L424,4.688L340.688,88L368,88L368,104L304,104C290.768,104 280,114.768 280,128L280,146.656C274.792,145.512 269.448,144.792 264,144.408L264,70.528C273.288,67.216 280,58.416 280,48C280,34.768 269.232,24 256,24C242.768,24 232,34.768 232,48C232,58.416 238.712,67.216 248,70.528L248,144.408C242.552,144.792 237.208,145.512 232,146.656L232,112C232,98.768 221.232,88 208,88L183.592,88C179.536,43.216 141.824,8 96,8C47.48,8 8,47.48 8,96C8,144.52 47.48,184 96,184C141.824,184 179.536,148.784 183.592,104L208,104C212.416,104 216,107.592 216,112L216,151.512C176.344,166.744 147.552,203.832 144.408,248L70.528,248C67.216,238.712 58.416,232 48,232C34.768,232 24,242.768 24,256C24,269.232 34.768,280 48,280C58.416,280 67.216,273.288 70.528,264L144.408,264C147.552,308.168 176.352,345.256 216,360.488L216,416C216,420.408 212.416,424 208,424L168,424L168,408L187.104,408L165.768,344L26.232,344L4.896,408L24,408L24,504L168,504L168,440L208,440C221.232,440 232,429.232 232,416L232,365.344C237.208,366.488 242.552,367.208 248,367.592L248,441.472C238.712,444.784 232,453.584 232,464C232,477.232 242.768,488 256,488C269.232,488 280,477.232 280,464C280,453.584 273.288,444.784 264,441.472L264,367.592C269.448,367.208 274.792,366.488 280,365.344L280,400C280,413.232 290.768,424 304,424L328.408,424C332.464,468.784 370.176,504 416,504C464.52,504 504,464.52 504,416C504,367.48 464.52,328 416,328ZM424,27.312L468.688,72L464,72L464,152L384,152L384,72L379.312,72L424,27.312ZM96,168C56.296,168 24,135.696 24,96C24,56.304 56.296,24 96,24C135.704,24 168,56.304 168,96C168,135.696 135.704,168 96,168ZM37.768,360L154.24,360L164.904,392L27.104,392L37.768,360ZM40,408L88,408L88,488L40,488L40,408ZM104,488L104,408L152,408L152,488L104,488ZM216,220.84C216,204.936 228.936,192 244.84,192L267.152,192C283.064,192 296,204.936 296,220.84C296,224.632 295.2,228.328 293.768,231.792C291.536,226.952 287.72,222.912 282.736,220.416L256,207.056L229.264,220.424C224.28,222.92 220.464,226.96 218.232,231.8C216.808,228.336 216,224.64 216,220.84ZM264,296.704C270.32,297.624 276.312,299.608 281.824,302.496L264,331.616L264,296.704ZM232,256L232,241.888C232,238.84 233.696,236.096 236.424,234.736L256,224.944L275.576,234.736C278.304,236.096 280,238.84 280,241.888L280,256C280,269.232 269.232,280 256,280C242.768,280 232,269.232 232,256ZM248,331.616L230.176,302.496C235.688,299.608 241.68,297.624 248,296.704L248,331.616ZM217.2,311.944L240.928,350.704C226.936,348.48 213.92,343.336 202.616,335.744C205.432,326.512 210.496,318.416 217.2,311.944ZM294.792,311.936C301.496,318.408 306.56,326.504 309.376,335.736C298.08,343.328 285.056,348.472 271.064,350.696L294.792,311.936ZM464,248C468.416,248 472,251.592 472,256C472,260.408 468.416,264 464,264C459.584,264 456,260.408 456,256C456,251.592 459.584,248 464,248ZM256,40C260.416,40 264,43.592 264,48C264,52.408 260.416,56 256,56C251.584,56 248,52.408 248,48C248,43.592 251.584,40 256,40ZM48,264C43.584,264 40,260.408 40,256C40,251.592 43.584,248 48,248C52.416,248 56,251.592 56,256C56,260.408 52.416,264 48,264ZM160,256C160,203.064 203.064,160 256,160C308.936,160 352,203.064 352,256C352,283.024 340.736,307.432 322.696,324.896C315.312,306.792 300.792,292.608 282.96,285.344C290.248,278.64 294.952,269.32 295.704,258.848L304.464,245.712C309.392,238.32 311.992,229.712 311.992,220.84C312,196.12 291.88,176 267.16,176L244.848,176C220.12,176 200,196.12 200,220.84C200,229.72 202.6,238.32 207.528,245.712L216.288,258.848C217.04,269.312 221.744,278.64 229.032,285.344C211.2,292.6 196.68,306.792 189.296,324.896C171.264,307.432 160,283.024 160,256ZM256,472C251.584,472 248,468.408 248,464C248,459.592 251.584,456 256,456C260.416,456 264,459.592 264,464C264,468.408 260.416,472 256,472ZM416,488C376.296,488 344,455.696 344,416C344,376.304 376.296,344 416,344C455.704,344 488,376.304 488,416C488,455.696 455.704,488 416,488Z" style="fill-rule:nonzero;"></path>
                    <path d="M120,72L120,56C120,47.176 112.824,40 104,40L88,40C79.176,40 72,47.176 72,56L72,72L56,72C47.176,72 40,79.176 40,88L40,104C40,112.824 47.176,120 56,120L72,120L72,136C72,144.824 79.176,152 88,152L104,152C112.824,152 120,144.824 120,136L120,120L136,120C144.824,120 152,112.824 152,104L152,88C152,79.176 144.824,72 136,72L120,72ZM136,104L104,104L104,136L88,136L88,104L56,104L56,88L88,88L88,56L104,56L104,88L136,88.024L136,104Z" style="fill-rule:nonzero;"></path>
                </g>
            </g>
        </g>
    </g>
</svg>