<svg xmlns="http://www.w3.org/2000/svg" xmlnsXlink="http://www.w3.org/1999/xlink" xmlnsSerif="http://www.serif.com/" width="100%" height="100%" viewBox="0 0 100 100" xmlSpace="preserve" style="fill-rule:evenodd;clip-rule:evenodd;stroke-linejoin:round;stroke-miterlimit:2;">
    <g id="Artboard1" transform="matrix(2,0,0,2,0,0)">
        <rect x="0" y="0" width="50" height="50" style="fill:none;"></rect>
        <g id="group.svg" transform="matrix(0.427373,0,0,0.427373,25,25)">
            <g transform="matrix(1,0,0,1,-49.8975,-31.9295)">
                <clipPath id="_clip1">
                    <rect x="0" y="0" width="99.795" height="63.859"></rect>
                </clipPath>
                <g clip-path="url(#_clip1)">
                    <g transform="matrix(1,0,0,1,0,-92.184)">
                        <g transform="matrix(1,0,0,1,-116.168,0)">
                            <path d="M183.259,128.159L174.764,124.384C174.164,124.117 173.776,123.52 173.776,122.864L173.776,120.531C176.735,118.184 178.464,114.608 178.464,110.831L178.464,107.547C179.426,107.015 180.025,105.999 180.026,104.9L180.026,104.581C180.019,97.781 174.426,92.188 167.626,92.181L164.5,92.181C157.7,92.188 152.107,97.781 152.1,104.581L152.1,107.473C152.085,108.428 152.517,109.337 153.267,109.929C153.393,110.025 153.527,110.111 153.667,110.185L153.667,110.831C153.667,114.608 155.395,118.184 158.354,120.531L158.354,122.864C158.354,123.52 157.965,124.117 157.366,124.384L148.871,128.159C146.092,129.396 144.293,132.164 144.291,135.206L144.291,154.581C144.291,155.383 144.951,156.043 145.753,156.043C146.555,156.043 147.215,155.383 147.215,154.581L147.215,135.206C147.216,135.039 147.226,134.872 147.245,134.706L151.159,138.62C151.766,139.223 152.107,140.045 152.104,140.901L152.104,154.584C152.104,155.386 152.764,156.046 153.566,156.046C154.368,156.046 155.028,155.386 155.028,154.584L155.028,140.9C155.033,139.269 154.384,137.702 153.228,136.552L148.562,131.885C148.989,131.44 149.499,131.083 150.062,130.832L158.413,127.12L164.606,133.313L164.606,154.582C164.606,155.384 165.266,156.044 166.068,156.044C166.87,156.044 167.53,155.384 167.53,154.582L167.53,133.313L173.723,127.12L182.074,130.832C182.637,131.083 183.147,131.44 183.574,131.885L178.9,136.55C177.744,137.7 177.095,139.267 177.1,140.898L177.1,154.581C177.1,155.383 177.76,156.043 178.562,156.043C179.364,156.043 180.024,155.383 180.024,154.581L180.024,140.9C180.021,140.044 180.362,139.222 180.969,138.619L184.883,134.705C184.902,134.871 184.912,135.038 184.913,135.205L184.913,154.58C184.913,155.382 185.573,156.042 186.375,156.042C187.177,156.042 187.837,155.382 187.837,154.58L187.837,135.206C187.835,132.165 186.037,129.396 183.259,128.159ZM166.065,130.639L160.631,125.204C161.053,124.496 161.277,123.687 161.278,122.863L161.278,122.268C164.34,123.551 167.792,123.551 170.854,122.268L170.854,122.863C170.855,123.687 171.079,124.496 171.501,125.204L166.065,130.639ZM166.065,120.307C160.869,120.301 156.596,116.028 156.59,110.832L156.59,110.175C157.573,109.769 158.474,109.185 159.245,108.452C159.545,108.175 159.716,107.785 159.716,107.378C159.716,106.575 159.056,105.915 158.254,105.915C157.886,105.915 157.532,106.054 157.262,106.303C156.655,106.907 155.91,107.353 155.091,107.603C155.078,107.606 155.065,107.609 155.052,107.61C155.034,107.568 155.025,107.523 155.027,107.478L155.027,104.586C155.033,99.39 159.306,95.117 164.502,95.111L167.627,95.111C172.823,95.117 177.096,99.39 177.102,104.586L177.102,104.905C177.107,104.95 177.079,104.992 177.036,105.005C168.282,106.734 163.892,103.476 162.41,101.994C162.138,101.735 161.777,101.59 161.401,101.59C160.599,101.59 159.939,102.25 159.939,103.052C159.939,103.428 160.084,103.789 160.343,104.061C164.883,108.601 171.507,108.682 175.543,108.198L175.543,110.84C175.533,116.034 171.26,120.303 166.066,120.308L166.065,120.307Z" style="fill-rule:nonzero;"></path>
                        </g>
                        <g transform="matrix(1,0,0,1,0,-32.269)">
                            <path d="M26.36,152.477L26.36,149.352C26.357,145.676 24.483,142.243 21.392,140.252C21.578,139.658 21.672,139.039 21.672,138.416C21.672,135.043 18.897,132.267 15.523,132.267C12.15,132.267 9.374,135.043 9.374,138.416C9.374,139.039 9.469,139.658 9.655,140.252C6.564,142.243 4.69,145.676 4.687,149.352L4.687,152.477C4.688,156.036 6.443,159.374 9.374,161.393L9.374,164.608C9.376,165.238 9.019,165.816 8.455,166.096L3.4,168.622C1.314,169.656 -0.008,171.794 0,174.122L0,186.85C0,187.652 0.66,188.312 1.462,188.312C2.264,188.312 2.924,187.652 2.924,186.85L2.924,174.75L5.305,177.131C5.912,177.734 6.252,178.556 6.25,179.412L6.25,186.845C6.25,187.647 6.91,188.307 7.712,188.307C8.514,188.307 9.174,187.647 9.174,186.845L9.174,179.412C9.179,177.781 8.53,176.214 7.374,175.064L4.06,171.75C4.044,171.734 4.027,171.72 4.01,171.705C4.222,171.518 4.457,171.359 4.71,171.233L9.766,168.705C10.021,168.577 10.264,168.425 10.491,168.252L14.065,171.826L14.065,186.85C14.065,187.652 14.725,188.312 15.527,188.312C16.329,188.312 16.989,187.652 16.989,186.85L16.989,171.831L20.563,168.257C20.79,168.43 21.033,168.582 21.288,168.71L22.682,169.41C22.888,169.515 23.116,169.57 23.348,169.57C24.15,169.57 24.81,168.91 24.81,168.108C24.81,167.551 24.491,167.04 23.99,166.795L22.596,166.095C22.032,165.815 21.675,165.237 21.677,164.608L21.677,161.393C24.606,159.373 26.36,156.035 26.36,152.477ZM15.524,135.189C17.292,135.191 18.747,136.646 18.749,138.414C18.749,138.607 18.732,138.8 18.698,138.99C16.631,138.357 14.421,138.357 12.354,138.99C12.317,138.794 12.298,138.595 12.298,138.396C12.298,136.637 13.746,135.19 15.504,135.19C15.511,135.19 15.517,135.19 15.524,135.19L15.524,135.189ZM15.524,141.439C19.863,141.444 23.432,145.013 23.437,149.352L23.437,149.882C19.858,151.004 15.935,149.824 13.569,146.913C13.293,146.546 12.86,146.33 12.401,146.33C12.014,146.33 11.643,146.483 11.369,146.756C10.325,147.837 9.04,148.657 7.62,149.149C7.733,144.89 11.263,141.446 15.524,141.439ZM15.524,169.159L12.146,165.781C12.247,165.398 12.298,165.004 12.299,164.608L12.299,162.824C14.399,163.478 16.65,163.478 18.75,162.824L18.75,164.608C18.751,165.004 18.802,165.398 18.903,165.781L15.524,169.159ZM15.524,160.39C11.185,160.385 7.616,156.816 7.611,152.477L7.611,152.177C9.334,151.762 10.941,150.962 12.311,149.837C13.127,150.607 14.038,151.27 15.022,151.81C16.733,152.752 18.655,153.248 20.609,153.252C21.558,153.249 22.504,153.136 23.427,152.915C23.19,157.083 19.698,160.385 15.524,160.389L15.524,160.39Z" style="fill-rule:nonzero;"></path>
                        </g>
                        <g transform="matrix(1,0,0,1,-290.416,-45.177)">
                            <path d="M386.812,178.406L378.631,174.315C378.067,174.035 377.71,173.457 377.712,172.828L377.712,170.756C379.698,169 380.837,166.473 380.837,163.822L380.837,162.158L380.937,162.158C381.738,162.159 382.398,161.501 382.4,160.7L382.4,157.575C382.394,152.49 378.211,148.307 373.126,148.301L370,148.301C364.915,148.307 360.732,152.49 360.726,157.575L360.726,160.7C360.726,161.502 361.386,162.162 362.188,162.162L362.288,162.162L362.288,163.828C362.288,166.479 363.427,169.006 365.413,170.762L365.413,172.834C365.415,173.463 365.058,174.042 364.494,174.321C363.985,174.563 363.66,175.078 363.66,175.641C363.66,176.443 364.32,177.103 365.122,177.103C365.358,177.103 365.591,177.046 365.801,176.936C366.056,176.808 366.299,176.656 366.526,176.483L370.1,180.057L370.1,199.763C370.1,200.565 370.76,201.225 371.562,201.225C372.364,201.225 373.024,200.565 373.024,199.763L373.024,180.052L376.598,176.478C376.825,176.651 377.068,176.803 377.323,176.931L385.239,180.889L382.839,183.289C381.683,184.439 381.034,186.006 381.039,187.637L381.039,199.757C381.039,200.559 381.699,201.219 382.501,201.219C383.303,201.219 383.963,200.559 383.963,199.757L383.963,187.637C383.96,186.781 384.301,185.959 384.908,185.356L387.182,183.082C387.253,183.351 387.289,183.627 387.289,183.905L387.289,199.757C387.289,200.559 387.949,201.219 388.751,201.219C389.553,201.219 390.213,200.559 390.213,199.757L390.213,183.905C390.22,181.577 388.898,179.439 386.812,178.406ZM363.65,158.934L363.65,157.572C363.654,154.09 366.518,151.226 370,151.222L373.125,151.222C376.607,151.226 379.471,154.09 379.475,157.572L379.475,159.2C375.888,159.088 372.379,158.114 369.248,156.36C368.67,155.975 367.894,156.052 367.403,156.543C366.357,157.624 365.071,158.443 363.65,158.934ZM371.563,177.378L368.185,174C368.286,173.617 368.337,173.223 368.338,172.827L368.338,172.516C370.418,173.288 372.709,173.288 374.789,172.516L374.789,172.827C374.79,173.223 374.841,173.617 374.942,174L371.563,177.378ZM371.563,170.171C368.081,170.167 365.217,167.303 365.213,163.821L365.213,161.464C366.463,160.958 367.622,160.25 368.644,159.37C371.542,160.819 374.687,161.713 377.914,162.005L377.914,163.82C377.911,167.303 375.046,170.168 371.563,170.172L371.563,170.171Z" style="fill-rule:nonzero;"></path>
                        </g>
                    </g>
                </g>
            </g>
        </g>
    </g>
</svg>