<svg xmlns="http://www.w3.org/2000/svg" xmlnsXlink="http://www.w3.org/1999/xlink" xmlnsSerif="http://www.serif.com/" width="100%" height="100%" viewBox="0 0 100 100" xmlSpace="preserve" style="fill-rule:evenodd;clip-rule:evenodd;stroke-linejoin:round;stroke-miterlimit:2;">
    <g id="Artboard1" transform="matrix(2,0,0,2,0,0)">
        <rect x="0" y="0" width="50" height="50" style="fill:none;"></rect>
        <g id="_005-touch.svg" serifId="005-touch.svg" transform="matrix(0.0865081,0,0,0.0865081,25,25)">
            <g transform="matrix(1,0,0,1,-256,-256)">
                <path d="M165.125,322.441C179.949,307.617 179.949,283.492 165.125,268.668C157.942,261.488 148.395,257.531 138.238,257.531C132.367,257.531 126.703,258.859 121.582,261.363C103.524,235.527 94.012,205.293 94.012,173.492C94.012,92.105 157.59,24.684 238.75,19.996C244.27,19.676 248.48,14.945 248.164,9.43C247.844,3.91 243.113,-0.289 237.598,0.016C145.86,5.316 74,81.516 74,173.492C74,210.187 85.215,245.043 106.477,274.648C96.762,289.398 98.387,309.476 111.352,322.441C118.535,329.621 128.082,333.578 138.238,333.578C148.395,333.578 157.942,329.621 165.125,322.441ZM125.5,282.82C129.012,279.308 133.625,277.55 138.238,277.55C142.848,277.55 147.461,279.308 150.973,282.82C157.996,289.839 157.996,301.269 150.973,308.289C143.949,315.312 132.524,315.312 125.5,308.289C118.481,301.269 118.481,289.843 125.5,282.82Z" style="fill-rule:nonzero;"></path>
                <path d="M402.043,346.667C395.719,346.667 389.773,348.316 384.613,351.207C380.039,336.703 366.461,326.156 350.465,326.156C340.344,326.156 331.191,330.378 324.676,337.152C322.867,335.277 320.855,333.601 318.68,332.152C341.742,321.828 362.496,306.492 379.289,287.066C406.531,255.543 421.535,215.207 421.535,173.492C421.535,136.816 410.32,101.941 389.062,72.332C398.777,57.582 397.152,37.508 384.183,24.539C369.359,9.715 345.238,9.715 330.41,24.539C315.586,39.363 315.586,63.488 330.41,78.312C337.824,85.726 347.558,89.433 357.297,89.433C363.004,89.433 368.703,88.148 373.941,85.601C392.008,111.445 401.523,141.703 401.523,173.492C401.523,245.875 352.387,307.058 283.102,323.175L283.102,269.316C322.781,254.668 349.89,216.312 349.89,173.492C349.89,117.183 304.078,71.371 247.766,71.371C191.457,71.371 145.645,117.18 145.645,173.492C145.645,195.715 152.664,216.847 165.938,234.597C177.516,250.078 193.535,262.101 211.508,268.961L211.508,416.144L198.938,395.523C188.375,378.183 166.324,372.558 148.742,382.706C132.02,392.363 125.496,413.55 133.938,431.027L171.262,506.429C173.008,509.956 176.555,511.999 180.238,511.999C181.731,511.999 183.242,511.667 184.668,510.96C189.621,508.507 191.649,502.503 189.199,497.554L151.914,422.238C148.051,414.234 151.051,404.484 158.75,400.038C166.707,395.445 177.07,398.089 181.852,405.937L212.969,456.995C215.305,460.824 219.902,462.632 224.219,461.421C228.535,460.21 231.52,456.273 231.52,451.785L231.52,222.207C231.52,213.504 238.602,206.425 247.305,206.425C256.008,206.425 263.09,213.504 263.09,222.207L263.09,261.785C263.086,261.855 263.09,261.925 263.09,262L263.09,412.242C263.09,417.769 267.566,422.246 273.094,422.246C278.621,422.246 283.102,417.769 283.102,412.242L283.102,361.953C283.102,353.25 290.18,346.167 298.883,346.167C307.586,346.167 314.668,353.25 314.668,361.953L314.668,415.882C314.668,421.41 319.148,425.89 324.672,425.89C330.199,425.89 334.68,421.41 334.68,415.882L334.68,361.953C334.68,353.25 341.762,346.167 350.465,346.167C359.168,346.167 366.246,353.25 366.246,361.953L366.246,416.558C366.246,422.085 370.726,426.566 376.254,426.566C381.781,426.566 386.258,422.085 386.258,416.558L386.258,382.464C386.258,373.761 393.34,366.679 402.043,366.679C410.746,366.679 417.828,373.761 417.828,382.464L417.828,501.988C417.828,507.515 422.304,511.995 427.832,511.995C433.359,511.995 437.84,507.515 437.84,501.988L437.84,382.464C437.84,362.726 421.781,346.667 402.043,346.667ZM344.562,64.164C337.539,57.141 337.539,45.715 344.562,38.691C348.074,35.18 352.683,33.426 357.297,33.426C361.91,33.426 366.523,35.18 370.035,38.691C377.055,45.715 377.055,57.141 370.035,64.164C363.012,71.183 351.582,71.183 344.562,64.164ZM165.656,173.492C165.656,128.215 202.492,91.379 247.77,91.379C293.043,91.379 329.879,128.215 329.879,173.492C329.879,205.375 311.195,234.183 283.102,247.625L283.102,222.207C283.102,216.59 281.797,211.269 279.477,206.531C288.352,197.976 293.598,186.051 293.598,173.492C293.598,148.219 273.039,127.66 247.77,127.66C222.496,127.66 201.938,148.219 201.938,173.492C201.938,185.683 206.902,197.398 215.438,205.937C212.934,210.82 211.508,216.351 211.508,222.207L211.508,247.203C183.645,233.586 165.656,205.347 165.656,173.492ZM229.148,191.375C224.535,186.601 221.949,180.277 221.949,173.492C221.949,159.254 233.531,147.672 247.766,147.672C262.004,147.672 273.586,159.254 273.586,173.492C273.586,180.375 270.789,186.929 266.031,191.718C260.578,188.355 254.164,186.414 247.305,186.414C240.68,186.414 234.477,188.226 229.148,191.375Z" style="fill-rule:nonzero;"></path>
                <path d="M283.199,23.578C285.832,23.578 288.414,22.508 290.273,20.645C292.137,18.785 293.207,16.203 293.207,13.57C293.207,10.941 292.137,8.359 290.273,6.496C288.414,4.637 285.832,3.566 283.199,3.566C280.57,3.566 277.988,4.637 276.129,6.496C274.266,8.359 273.195,10.941 273.195,13.57C273.195,16.203 274.266,18.785 276.129,20.645C277.988,22.508 280.57,23.578 283.199,23.578Z" style="fill-rule:nonzero;"></path>
            </g>
        </g>
    </g>
</svg>