<svg xmlns="http://www.w3.org/2000/svg" xmlnsXlink="http://www.w3.org/1999/xlink" xmlnsSerif="http://www.serif.com/" width="100%" height="100%" viewBox="0 0 100 100" xmlSpace="preserve" style="fill-rule:evenodd;clip-rule:evenodd;stroke-linejoin:round;stroke-miterlimit:2;">
    <g id="Artboard1" transform="matrix(2,0,0,2,0,0)">
        <rect x="0" y="0" width="50" height="50" style="fill:none;"></rect>
        <g id="_002-book.svg" serifId="002-book.svg" transform="matrix(0.0848162,0,0,0.0848162,25,25)">
            <g transform="matrix(1,0,0,1,-256,-256)">
                <g id="Page-1">
                    <g id="_026---Idea" serifId="026---Idea">
                        <path id="Shape" d="M470.554,268.399C469.011,260.364 461.984,254.554 453.803,254.549L437.325,254.549L436.113,247.287C434.904,239.994 429.158,234.295 421.854,233.148C420.233,232.892 418.594,232.721 416.981,232.499C419.776,219.453 417.454,205.833 410.496,194.449C414.172,184.913 413.486,174.245 408.619,165.258C403.751,156.271 395.19,149.868 385.195,147.738C378.804,113.536 349.05,88.675 314.257,88.465C313.404,88.465 312.644,88.576 311.834,88.602C306.274,79.871 297.108,74.076 286.837,72.799C276.565,71.521 266.26,74.894 258.731,81.997C249.246,75.832 238.179,72.545 226.867,72.533C208.64,72.608 191.462,81.068 180.292,95.471C167.889,91.854 154.515,94.075 143.946,101.506C133.378,108.937 126.762,120.771 125.969,133.666C112.942,139.142 104.465,151.893 104.457,166.025C104.483,168.474 104.769,170.914 105.31,173.303C93.789,190.672 90.778,212.332 97.126,232.183C94.839,232.499 92.501,232.781 90.3,233.105C82.958,234.213 77.16,239.914 75.93,247.236L74.718,254.524L58.197,254.524C50.03,254.529 43.011,260.321 41.455,268.339L4.087,460.186C2.628,467.699 4.607,475.471 9.482,481.372C14.357,487.272 21.616,490.682 29.269,490.667L207.223,490.667C214.289,502.323 235.759,507.733 256,507.733C276.028,507.733 297.293,502.451 304.563,490.667L482.731,490.667C490.383,490.682 497.64,487.273 502.514,481.374C507.389,475.476 509.369,467.706 507.913,460.194L470.554,268.399ZM130.261,181.47C123.333,177.304 120.026,169.034 122.172,161.24C124.319,153.445 131.393,148.034 139.477,148.002C145.135,147.985 150.46,150.675 153.805,155.238C155.622,157.686 158.607,158.979 161.635,158.63C164.664,158.28 167.276,156.341 168.488,153.544C169.699,150.746 169.326,147.515 167.509,145.067C161.715,137.322 152.934,132.368 143.309,131.413C145.853,119.463 156.392,110.907 168.61,110.874C169.651,110.926 170.688,111.04 171.716,111.215C171.03,112.964 170.432,114.747 169.924,116.557C168.862,121.074 171.604,125.612 176.097,126.772C180.59,127.932 185.187,125.29 186.445,120.823C187.415,117.073 188.906,113.477 190.874,110.14C198.443,97.459 212.099,89.666 226.867,89.6C234.905,89.636 242.758,92.007 249.472,96.427C248.193,100.02 247.515,103.8 247.467,107.614C247.467,112.327 251.287,116.147 256,116.147C260.713,116.147 264.533,112.327 264.533,107.614C264.533,97.7 272.57,89.664 282.483,89.664C292.397,89.664 300.433,97.7 300.433,107.614C300.433,112.327 304.254,116.147 308.966,116.147C313.679,116.147 317.5,112.327 317.5,107.614C317.5,106.957 317.338,106.334 317.303,105.677C341.737,107.184 362.284,124.553 367.838,148.395C363.857,149.554 360.117,151.418 356.796,153.899C354.357,155.728 353.079,158.719 353.444,161.746C353.808,164.773 355.76,167.375 358.564,168.573C361.367,169.77 364.597,169.381 367.036,167.552C373.855,162.503 383.275,162.906 389.638,168.518C396.001,174.13 397.578,183.426 393.421,190.822C391.563,194.088 388.74,196.7 385.34,198.298C381.774,200.024 379.865,203.979 380.732,207.845C381.599,211.711 385.013,214.472 388.975,214.511C390.226,214.513 391.462,214.236 392.593,213.7C394.855,212.604 396.992,211.268 398.967,209.715C403.379,222.255 400.612,236.203 391.748,246.11L391.543,246.323C380.426,258.366 362.692,261.621 348.023,254.31C346.587,253.552 345.206,252.69 343.893,251.733C350.179,242.921 351.047,231.347 346.146,221.696C344.774,218.972 342.053,217.187 339.008,217.013C335.963,216.839 333.057,218.303 331.384,220.853C329.711,223.403 329.525,226.652 330.897,229.376C333.703,235.016 331.953,241.86 326.784,245.461C323.749,247.482 319.999,248.121 316.465,247.22C312.932,246.319 309.946,243.962 308.25,240.734C306.885,238.007 304.17,236.215 301.126,236.033C298.082,235.851 295.172,237.306 293.493,239.851C291.813,242.396 291.619,245.644 292.983,248.371C297.988,258.474 308.299,264.854 319.573,264.823C323.244,264.799 326.877,264.084 330.283,262.716C333.331,265.384 336.688,267.676 340.284,269.542C352.446,275.846 366.588,277.154 379.699,273.186C371.266,284.701 358.646,292.439 344.559,294.733C340.177,295.446 337.074,299.401 337.423,303.827C337.773,308.254 341.459,311.672 345.899,311.689C346.353,311.688 346.806,311.654 347.255,311.586C352.452,310.687 357.53,309.204 362.394,307.166C365.022,311.814 367.156,316.724 368.759,321.818C369.053,322.707 369.203,323.637 369.203,324.574C369.201,328.262 366.998,331.593 363.605,333.039C359.68,334.557 355.224,333.359 352.589,330.078C345.98,322.317 337.326,316.567 327.612,313.481C309.171,307.302 302.054,301.781 299.034,295.774C303.461,295.221 307.836,294.308 312.115,293.043C315.03,292.147 317.245,289.764 317.926,286.792C318.607,283.819 317.65,280.71 315.417,278.634C313.183,276.558 310.012,275.831 307.098,276.727C302.309,278.196 297.367,279.104 292.369,279.433C282.741,280.185 273.067,278.726 264.09,275.166C260.719,273.851 256.885,274.805 254.524,277.547C242.1,291.818 220.835,294.244 205.516,283.137C190.197,272.03 185.891,251.066 195.593,234.82C197.164,232.197 197.217,228.934 195.731,226.262C194.245,223.589 191.445,221.912 188.388,221.863C185.33,221.813 182.478,223.399 180.907,226.022C178.871,229.487 177.233,233.172 176.026,237.005C169.306,236.651 164.007,231.155 163.9,224.427L163.9,224.213C163.895,221.962 162.991,219.805 161.389,218.223C159.786,216.642 157.618,215.766 155.366,215.791C150.633,215.838 146.823,219.693 146.833,224.427C146.871,239.56 158.284,252.244 173.329,253.875C173.36,256.736 173.619,259.589 174.106,262.409C155.052,266.531 135.291,259.683 122.875,244.654C110.459,229.625 107.462,208.926 115.106,190.993C117.015,192.925 119.146,194.623 121.455,196.053C125.486,198.415 130.667,197.096 133.077,193.094C135.488,189.092 134.233,183.896 130.261,181.436L130.261,181.47ZM92.715,250.018C96.649,249.438 100.71,248.926 104.747,248.397C120.524,273.61 150.7,285.852 179.584,278.758C187.345,293.488 201.527,303.761 217.942,306.543C234.357,309.325 251.132,304.299 263.313,292.949C269.112,294.679 275.085,295.761 281.122,296.175C285.244,311.808 297.156,321.28 322.185,329.668C328.932,331.784 334.951,335.748 339.558,341.111C344.681,347.203 352.216,350.743 360.175,350.797C363.656,350.796 367.101,350.093 370.304,348.732C379.977,344.598 386.252,335.093 386.253,324.574C386.261,321.831 385.823,319.104 384.956,316.501C383.037,310.472 380.509,304.654 377.412,299.136C391.923,288.705 402.031,273.245 405.769,255.77C407.586,253.61 409.229,251.311 410.684,248.892C413.542,249.259 416.401,249.583 419.277,250.061L450.082,435.354C389.867,415.247 324.749,415.247 264.533,435.354L264.533,328.533C264.533,323.821 260.713,320 256,320C251.287,320 247.467,323.821 247.467,328.533L247.467,435.388C187.258,415.262 122.141,415.238 61.918,435.319L92.715,250.018ZM22.622,470.46C21.009,468.512 20.352,465.945 20.83,463.462L58.197,271.616L71.851,271.616L45.073,432.546C44.131,438.404 46.288,444.332 50.774,448.214C55.26,452.097 61.436,453.382 67.098,451.61C112.589,436.871 161.053,433.796 208.043,442.667L205.5,473.6L29.269,473.6C26.695,473.602 24.255,472.449 22.622,470.46ZM256,490.667C235.443,490.667 223.65,484.591 221.918,481.886L224.853,446.473C234.236,448.809 243.419,451.888 252.314,455.68C253.464,456.234 254.723,456.526 256,456.533C257.28,456.531 258.543,456.24 259.695,455.68C268.584,451.865 277.764,448.766 287.147,446.413L290.082,481.877C288.35,484.591 276.557,490.667 256,490.667ZM489.378,470.46C487.745,472.449 485.305,473.602 482.731,473.6L306.526,473.6L303.966,442.607C350.981,433.755 399.467,436.856 444.971,451.627C450.631,453.375 456.794,452.073 461.262,448.182C465.731,444.292 467.87,438.368 466.918,432.521L440.166,271.625L453.82,271.625L491.196,463.454C491.669,465.943 491.002,468.514 489.378,470.46Z" style="fill-rule:nonzero;"></path>
                        <path id="Shape1" serifId="Shape" d="M227.721,197.845C224.227,201.006 223.956,206.399 227.115,209.894C234.354,217.887 243.92,223.403 254.464,225.664C249.689,232.393 241.945,236.386 233.694,236.373C228.981,236.373 225.161,240.194 225.161,244.907C225.161,249.619 228.981,253.44 233.694,253.44C251.359,253.51 267.21,242.6 273.451,226.074C294.669,222.557 311.468,206.225 315.58,185.114C316.215,182.094 315.171,178.967 312.848,176.935C310.526,174.903 307.288,174.283 304.379,175.313C301.471,176.344 299.345,178.864 298.82,181.905C297.147,190.706 292.069,198.492 284.689,203.571C270.492,213.133 251.451,210.963 239.77,198.451C236.609,194.958 231.216,194.687 227.721,197.845Z" style="fill-rule:nonzero;"></path>
                        <path id="Shape2" serifId="Shape" d="M197.973,188.587C202.686,188.587 206.507,184.766 206.507,180.053C206.507,174.169 208.844,168.526 213.005,164.365C217.166,160.204 222.809,157.867 228.693,157.867C233.406,157.867 237.227,154.046 237.227,149.333C237.227,144.621 233.406,140.8 228.693,140.8C207.024,140.824 189.464,158.384 189.44,180.053C189.44,182.317 190.339,184.487 191.939,186.087C193.54,187.688 195.71,188.587 197.973,188.587Z" style="fill-rule:nonzero;"></path>
                        <path id="Shape3" serifId="Shape" d="M264.533,21.333L264.533,12.8C264.533,8.087 260.713,4.267 256,4.267C251.287,4.267 247.467,8.087 247.467,12.8L247.467,21.333C247.467,26.046 251.287,29.867 256,29.867C260.713,29.867 264.533,26.046 264.533,21.333Z" style="fill-rule:nonzero;"></path>
                        <path id="Shape4" serifId="Shape" d="M396.032,65.502L387.499,74.035C385.28,76.178 384.391,79.35 385.172,82.334C385.953,85.317 388.283,87.647 391.266,88.428C394.25,89.209 397.422,88.32 399.565,86.101L408.098,77.568C410.316,75.425 411.206,72.253 410.425,69.269C409.644,66.286 407.314,63.956 404.331,63.175C401.347,62.394 398.175,63.284 396.032,65.502Z" style="fill-rule:nonzero;"></path>
                        <path id="Shape5" serifId="Shape" d="M118.468,88.602C121.919,88.601 125.03,86.522 126.35,83.334C127.671,80.145 126.941,76.476 124.501,74.035L115.968,65.502C113.825,63.284 110.653,62.394 107.669,63.175C104.686,63.956 102.356,66.286 101.575,69.269C100.794,72.253 101.684,75.425 103.902,77.568L112.435,86.101C114.035,87.702 116.205,88.601 118.468,88.602Z" style="fill-rule:nonzero;"></path>
                        <path id="Shape6" serifId="Shape" d="M184.158,52.693C185.279,52.691 186.389,52.471 187.426,52.045C189.518,51.178 191.179,49.516 192.045,47.425C192.911,45.333 192.91,42.983 192.043,40.892L182.238,17.237C181.115,14.356 178.521,12.308 175.458,11.884C172.395,11.46 169.342,12.726 167.478,15.193C165.614,17.661 165.231,20.944 166.477,23.774L176.273,47.428C177.595,50.616 180.707,52.694 184.158,52.693Z" style="fill-rule:nonzero;"></path>
                        <path id="Shape7" serifId="Shape" d="M340.907,12.621C336.554,10.82 331.566,12.887 329.762,17.237L319.957,40.892C319.087,42.984 319.085,45.336 319.951,47.43C320.817,49.524 322.48,51.187 324.574,52.053C325.611,52.479 326.721,52.699 327.842,52.702C331.293,52.703 334.405,50.625 335.727,47.437L345.523,23.782C346.393,21.69 346.395,19.338 345.529,17.244C344.663,15.151 343,13.487 340.907,12.621Z" style="fill-rule:nonzero;"></path>
                        <path id="Shape8" serifId="Shape" d="M429.44,154.3C430.562,154.298 431.673,154.074 432.708,153.643L456.354,143.846C459.171,142.68 461.152,140.1 461.551,137.077C461.949,134.055 460.705,131.049 458.287,129.192C455.868,127.336 452.643,126.911 449.826,128.077L426.172,137.873C422.397,139.424 420.248,143.429 421.045,147.432C421.841,151.434 425.359,154.312 429.44,154.3Z" style="fill-rule:nonzero;"></path>
                        <path id="Shape9" serifId="Shape" d="M79.292,153.643C83.646,155.448 88.64,153.381 90.445,149.026C92.25,144.671 90.183,139.678 85.828,137.873L62.174,128.077C57.819,126.274 52.828,128.343 51.025,132.698C49.222,137.052 51.291,142.044 55.646,143.846L79.292,153.643Z" style="fill-rule:nonzero;"></path>
                    </g>
                </g>
            </g>
        </g>
    </g>
</svg>