<svg xmlns="http://www.w3.org/2000/svg" xmlnsXlink="http://www.w3.org/1999/xlink" xmlnsSerif="http://www.serif.com/" width="100%" height="100%" viewBox="0 0 100 100" xmlSpace="preserve" style="fill-rule:evenodd;clip-rule:evenodd;stroke-linejoin:round;stroke-miterlimit:2;">
    <g id="Artboard1" transform="matrix(2,0,0,2,0,0)">
        <rect x="0" y="0" width="50" height="50" style="fill:none;"></rect>
        <g id="outsourcing.svg" transform="matrix(0.54974,0,0,0.54974,25,25)">
            <g transform="matrix(1,0,0,1,-38.25,-38.25)">
                <clipPath id="_clip1">
                    <rect x="0" y="0" width="76.5" height="76.5"></rect>
                </clipPath>
                <g clip-path="url(#_clip1)"> 
                    <g transform="matrix(1,0,0,1,-1,-1)">
                        <g transform="matrix(1,0,0,1,0.656,4.677)">
                            <path d="M60.8,35.806L50.932,35.806L50.932,21L28.723,21L28.723,30.871L18.852,30.871L18.852,50.613L3.807,50.613L4.764,52.424C11.376,64.952 24.427,72.822 38.593,72.822C52.759,72.822 65.81,64.952 72.422,52.424L73.379,50.613L60.8,50.613L60.8,35.806ZM58.335,50.613L46,50.613L46,38.274L58.335,38.274L58.335,50.613ZM38.594,70.355C36.282,70.355 33.947,67.595 32.024,62.955L45.164,62.955C43.24,67.598 40.906,70.355 38.594,70.355ZM47.835,62.955L60.381,62.955C55.577,66.647 49.91,69.054 43.917,69.947C45.613,67.858 46.939,65.493 47.835,62.955ZM33.271,69.944C27.279,69.05 21.612,66.643 16.807,62.952L29.352,62.952C30.248,65.49 31.574,67.855 33.271,69.944ZM31.101,60.484C30.298,58.062 29.654,55.59 29.172,53.084L48.014,53.084C47.533,55.59 46.888,58.062 46.085,60.484L31.101,60.484ZM31.191,23.468L48.464,23.468L48.464,35.806L43.529,35.806L43.529,50.613L36.129,50.613L36.129,30.871L31.19,30.871L31.191,23.468ZM21.32,33.339L33.658,33.339L33.658,50.613L21.319,50.613L21.32,33.339ZM7.971,53.081L26.661,53.081C27.122,55.582 27.732,58.053 28.488,60.481L13.92,60.481C11.618,58.289 9.618,55.8 7.972,53.081L7.971,53.081ZM69.215,53.081C67.569,55.801 65.568,58.289 63.265,60.481L48.7,60.481C49.456,58.053 50.066,55.582 50.527,53.081L69.216,53.081L69.215,53.081Z" style="fill-rule:nonzero;"></path>
                        </g>
                        <path d="M14.573,28.145C22.019,28.145 28.146,22.018 28.146,14.572C28.146,7.126 22.019,0.999 14.573,0.999C7.127,0.999 1,7.126 1,14.572C1,14.572 1,14.573 1,14.573C1.009,22.015 7.131,28.136 14.573,28.145ZM7.623,23.221C8.646,20.267 11.446,18.273 14.573,18.273C17.7,18.273 20.5,20.267 21.523,23.221C17.484,26.485 11.662,26.485 7.623,23.221ZM10.871,12.1C10.871,10.07 12.541,8.4 14.571,8.4C16.601,8.4 18.271,10.07 18.271,12.1C18.271,14.13 16.601,15.8 14.571,15.8C12.542,15.797 10.874,14.129 10.871,12.1ZM14.571,3.463C14.58,3.463 14.59,3.463 14.599,3.463C20.68,3.463 25.683,8.466 25.683,14.547C25.683,16.982 24.881,19.351 23.4,21.285C22.397,19.254 20.723,17.63 18.661,16.691C19.985,15.521 20.743,13.836 20.743,12.07C20.743,8.685 17.959,5.901 14.574,5.901C11.19,5.901 8.405,8.685 8.405,12.07C8.405,13.836 9.164,15.521 10.488,16.691C8.426,17.63 6.752,19.254 5.749,21.285C4.271,19.352 3.47,16.985 3.47,14.552C3.47,8.471 8.473,3.468 14.554,3.468C14.56,3.468 14.567,3.468 14.573,3.468L14.571,3.463Z" style="fill-rule:nonzero;"></path>
                        <g transform="matrix(1,0,0,1,9.355,0)">
                            <path d="M54.573,28.145C62.019,28.145 68.146,22.018 68.146,14.572C68.146,7.126 62.019,0.999 54.573,0.999C47.127,0.999 41,7.126 41,14.572C41,14.572 41,14.573 41,14.573C41.009,22.015 47.131,28.136 54.573,28.145ZM47.624,23.221C48.647,20.267 51.447,18.273 54.574,18.273C57.701,18.273 60.501,20.267 61.524,23.221C57.485,26.485 51.663,26.485 47.624,23.221ZM50.871,12.1C50.871,10.07 52.541,8.4 54.571,8.4C56.601,8.4 58.271,10.07 58.271,12.1C58.271,14.13 56.601,15.8 54.571,15.8C52.542,15.797 50.874,14.129 50.871,12.1ZM54.571,3.463C54.58,3.463 54.59,3.463 54.599,3.463C60.68,3.463 65.683,8.466 65.683,14.547C65.683,16.982 64.881,19.351 63.4,21.285C62.397,19.254 60.723,17.63 58.661,16.691C59.985,15.521 60.743,13.836 60.743,12.07C60.743,8.685 57.959,5.901 54.575,5.901C51.19,5.901 48.406,8.685 48.406,12.07C48.406,13.836 49.164,15.521 50.488,16.691C48.426,17.63 46.752,19.254 45.749,21.285C44.271,19.352 43.47,16.985 43.47,14.552C43.47,8.471 48.473,3.468 54.554,3.468C54.56,3.468 54.567,3.468 54.573,3.468L54.571,3.463Z" style="fill-rule:nonzero;"></path>
                        </g>
                        <g transform="matrix(1,0,0,1,5.915,0.371)">
                            <path d="M32.1,7.309L32.1,17.9L34.568,17.9L34.568,7.309L38.631,11.372L40.376,9.627L33.335,2.586L26.293,9.628L28.038,11.373L32.1,7.309Z" style="fill-rule:nonzero;"></path>
                        </g>
                        <g transform="matrix(1,0,0,1,7.016,3.742)">
                            <rect x="31" y="17" width="2.468" height="2.468" style="fill-rule:nonzero;"></rect>
                        </g>
                        <g transform="matrix(1,0,0,1,10.992,5.448)">
                            <path d="M55.765,26.038L59.828,30.1L48,30.1L48,32.568L59.828,32.568L55.765,36.631L57.51,38.376L64.552,31.334L57.51,24.292L55.765,26.038Z" style="fill-rule:nonzero;"></path>
                        </g>
                        <g transform="matrix(1,0,0,1,0.371,5.448)">
                            <path d="M11.372,36.632L7.309,32.569L16.669,32.569L16.669,30.1L7.309,30.1L11.372,26.037L9.628,24.293L2.586,31.335L9.628,38.377L11.372,36.632Z" style="fill-rule:nonzero;"></path>
                        </g>
                        <g transform="matrix(1,0,0,1,7.25,6.548)">
                            <rect x="32" y="29" width="2.468" height="2.468" style="fill-rule:nonzero;"></rect>
                        </g>
                        <g transform="matrix(1,0,0,1,7.25,8.419)">
                            <rect x="32" y="37" width="2.468" height="2.468" style="fill-rule:nonzero;"></rect>
                        </g>
                        <g transform="matrix(1,0,0,1,7.25,9.355)">
                            <rect x="32" y="41" width="2.468" height="2.468" style="fill-rule:nonzero;"></rect>
                        </g>
                        <g transform="matrix(1,0,0,1,7.25,7.484)">
                            <rect x="32" y="33" width="2.468" height="2.468" style="fill-rule:nonzero;"></rect>
                        </g>
                        <g transform="matrix(1,0,0,1,7.25,5.613)">
                            <rect x="32" y="25" width="2.468" height="2.468" style="fill-rule:nonzero;"></rect>
                        </g>
                        <g transform="matrix(1,0,0,1,8.185,6.548)">
                            <rect x="36" y="29" width="2.468" height="2.468" style="fill-rule:nonzero;"></rect>
                        </g>
                        <g transform="matrix(1,0,0,1,8.185,5.613)">
                            <rect x="36" y="25" width="2.468" height="2.468" style="fill-rule:nonzero;"></rect>
                        </g>
                        <g transform="matrix(1,0,0,1,6.315,5.613)">
                            <rect x="28" y="25" width="2.468" height="2.468" style="fill-rule:nonzero;"></rect>
                        </g>
                        <g transform="matrix(1,0,0,1,5.379,7.484)">
                            <rect x="24" y="33" width="2.468" height="2.468" style="fill-rule:nonzero;"></rect>
                        </g>
                        <g transform="matrix(1,0,0,1,4.444,7.484)">
                            <rect x="20" y="33" width="2.468" height="2.468" style="fill-rule:nonzero;"></rect>
                        </g>
                        <g transform="matrix(1,0,0,1,4.444,8.419)">
                            <rect x="20" y="37" width="2.468" height="2.468" style="fill-rule:nonzero;"></rect>
                        </g>
                        <g transform="matrix(1,0,0,1,5.379,8.419)">
                            <rect x="24" y="37" width="2.468" height="2.468" style="fill-rule:nonzero;"></rect>
                        </g>
                        <g transform="matrix(1,0,0,1,4.444,9.355)">
                            <rect x="20" y="41" width="2.468" height="2.468" style="fill-rule:nonzero;"></rect>
                        </g>
                        <g transform="matrix(1,0,0,1,5.379,9.355)">
                            <rect x="24" y="41" width="2.468" height="2.468" style="fill-rule:nonzero;"></rect>
                        </g>
                        <g transform="matrix(1,0,0,1,10.056,8.419)">
                            <rect x="44" y="37" width="2.468" height="2.468" style="fill-rule:nonzero;"></rect>
                        </g>
                        <g transform="matrix(1,0,0,1,9.121,8.419)">
                            <rect x="40" y="37" width="2.468" height="2.468" style="fill-rule:nonzero;"></rect>
                        </g>
                        <g transform="matrix(1,0,0,1,9.121,9.355)">
                            <rect x="40" y="41" width="2.468" height="2.468" style="fill-rule:nonzero;"></rect>
                        </g>
                        <g transform="matrix(1,0,0,1,10.056,9.355)">
                            <rect x="44" y="41" width="2.468" height="2.468" style="fill-rule:nonzero;"></rect>
                        </g>
                    </g>
                </g>
            </g>
        </g>
    </g>
</svg>