<svg xmlns="http://www.w3.org/2000/svg" xmlnsXlink="http://www.w3.org/1999/xlink" xmlnsSerif="http://www.serif.com/" width="100%" height="100%" viewBox="0 0 100 100" xmlSpace="preserve" style="fill-rule:evenodd;clip-rule:evenodd;stroke-linejoin:round;stroke-miterlimit:2;">
    <g id="Artboard1" transform="matrix(2,0,0,2,0,0)">
        <rect x="0" y="0" width="50" height="50" style="fill:none;"></rect>
        <g id="compliant.svg" transform="matrix(0.484701,0,0,0.484701,25,25)">
            <g transform="matrix(1,0,0,1,-38.6885,-41.215)">
                <clipPath id="_clip1">
                    <rect x="0" y="0" width="77.377" height="82.43"></rect>
                </clipPath>
                <g clip-path="url(#_clip1)">
                    <g transform="matrix(1,0,0,1,-15.691,0)">
                        <path d="M91.378,0L45.032,0C44.105,0.001 43.343,0.763 43.342,1.69L43.342,5.474L39.558,5.474C38.631,5.475 37.869,6.237 37.868,7.164L37.868,21.986L20.135,30.848C19.179,31.321 18.573,32.301 18.577,33.368L18.577,42.66C18.549,45.535 18.913,48.4 19.66,51.176C17.15,53.34 15.705,56.495 15.705,59.809C15.705,66.063 20.851,71.209 27.105,71.209C28.55,71.209 29.981,70.934 31.323,70.4L31.323,76.877C31.324,77.876 32.145,78.697 33.144,78.697C33.595,78.697 34.03,78.529 34.365,78.227L38.793,74.221L43.221,78.227C43.556,78.529 43.991,78.697 44.442,78.697C45.441,78.697 46.262,77.876 46.263,76.877L46.263,67.366L55.345,67.366C56.007,67.366 56.553,66.821 56.553,66.159C56.553,65.496 56.007,64.951 55.345,64.951L48.684,64.951C51.157,62.894 53.299,60.468 55.034,57.76L76.2,57.76C76.862,57.76 77.408,57.215 77.408,56.552C77.408,55.89 76.862,55.345 76.2,55.345L56.362,55.345C56.845,54.341 57.26,53.305 57.604,52.245L61.624,52.245C62.286,52.245 62.831,51.7 62.831,51.037C62.831,50.375 62.286,49.83 61.624,49.83L58.266,49.83C58.493,48.807 58.666,47.772 58.784,46.73L76.2,46.73C76.862,46.73 77.408,46.185 77.408,45.522C77.408,44.86 76.862,44.315 76.2,44.315L58.97,44.315C58.993,43.775 59.009,43.228 59.009,42.667L59.009,41.2L76.2,41.2C76.862,41.2 77.408,40.655 77.408,39.993C77.408,39.33 76.862,38.785 76.2,38.785L59.009,38.785L59.009,35.685L65.166,35.685C65.828,35.685 66.373,35.14 66.373,34.478C66.373,33.815 65.828,33.27 65.166,33.27L59.006,33.27C58.974,32.239 58.375,31.305 57.451,30.847L56.089,30.166L76.2,30.166C76.862,30.166 77.408,29.621 77.408,28.959C77.408,28.296 76.862,27.751 76.2,27.751L51.257,27.751L40.283,22.267L40.283,7.889L85.183,7.889L85.183,16.9C85.183,17.562 85.728,18.108 86.391,18.108C87.053,18.108 87.598,17.562 87.598,16.9L87.598,7.164C87.597,6.237 86.835,5.475 85.908,5.474L45.757,5.474L45.757,2.415L90.657,2.415L90.657,59.478L87.595,59.478L87.595,22.539C87.595,21.877 87.05,21.331 86.387,21.331C85.725,21.331 85.18,21.877 85.18,22.539L85.18,64.951L60.98,64.951C60.318,64.951 59.772,65.496 59.772,66.159C59.772,66.821 60.318,67.366 60.98,67.366L85.9,67.366C86.827,67.365 87.589,66.603 87.59,65.676L87.59,61.893L91.373,61.893C92.3,61.892 93.062,61.13 93.063,60.203L93.063,1.69C93.062,0.765 92.303,0.004 91.378,0ZM18.106,59.813C18.106,59.812 18.106,59.81 18.106,59.809C18.106,54.877 22.165,50.818 27.097,50.818C32.029,50.818 36.088,54.877 36.088,59.809C36.088,64.74 32.031,68.798 27.1,68.8C22.17,68.797 18.113,64.743 18.106,59.813ZM40.015,72.074C39.326,71.447 38.261,71.447 37.572,72.074L33.738,75.542L33.738,69.078C37.611,66.312 39.358,61.396 38.1,56.806C38.33,56.819 38.561,56.828 38.795,56.828C40.538,56.829 42.261,56.46 43.85,55.744L43.85,75.544L40.015,72.074ZM56.595,33.368L56.595,42.66C56.595,49.019 55.01,54.044 51.606,58.474C50.045,60.47 48.252,62.272 46.264,63.843L46.264,54.31C51.055,50.685 52.543,44.065 49.764,38.739C49.556,38.341 49.143,38.091 48.694,38.091C48.032,38.091 47.487,38.636 47.487,39.298C47.487,39.493 47.534,39.685 47.624,39.858C48.369,41.277 48.756,42.856 48.752,44.458C48.752,44.458 48.752,44.459 48.752,44.459C48.752,49.919 44.26,54.411 38.8,54.411C38.217,54.411 37.634,54.36 37.06,54.258C35.514,51.494 32.888,49.492 29.813,48.733C29.179,47.398 28.85,45.939 28.85,44.461C28.85,39.002 33.342,34.51 38.801,34.51C40.732,34.51 42.622,35.073 44.239,36.128C44.436,36.257 44.666,36.325 44.9,36.325C45.563,36.325 46.108,35.78 46.108,35.118C46.108,34.711 45.902,34.331 45.562,34.108C43.549,32.79 41.195,32.088 38.789,32.088C32.005,32.088 26.423,37.67 26.423,44.454C26.423,45.799 26.642,47.134 27.072,48.408C25.227,48.41 23.41,48.863 21.779,49.727C21.235,47.411 20.971,45.039 20.991,42.66L20.991,33.368C20.99,33.216 21.077,33.076 21.213,33.008L38.791,24.223L56.369,33.008C56.506,33.075 56.592,33.216 56.592,33.368L56.595,33.368Z" style="fill-rule:nonzero;"></path>
                        <g transform="matrix(1,0,0,1,-168.678,-115.868)">
                            <path d="M216.737,139.309C216.737,139.971 217.282,140.516 217.944,140.516L244.875,140.516C245.537,140.516 246.083,139.971 246.083,139.308C246.083,138.646 245.537,138.101 244.875,138.101L217.944,138.101C217.282,138.101 216.737,138.646 216.737,139.308C216.737,139.308 216.737,139.309 216.737,139.309Z" style="fill-rule:nonzero;"></path>
                        </g>
                        <g transform="matrix(1,0,0,1,-275.033,-173.386)">
                            <path d="M351.231,206.657L344.708,206.657C344.046,206.657 343.501,207.202 343.501,207.865C343.501,208.527 344.046,209.072 344.708,209.072L351.231,209.072C351.893,209.072 352.439,208.527 352.439,207.865C352.439,207.202 351.893,206.657 351.231,206.657Z" style="fill-rule:nonzero;"></path>
                        </g>
                        <g transform="matrix(1,0,0,1,-255.736,-259.663)">
                            <path d="M331.933,309.49L321.707,309.49C321.045,309.49 320.499,310.035 320.499,310.698C320.499,311.36 321.045,311.905 321.707,311.905L331.932,311.905C332.594,311.905 333.14,311.36 333.14,310.698C333.14,310.035 332.594,309.49 331.932,309.49C331.932,309.49 331.933,309.49 331.933,309.49Z" style="fill-rule:nonzero;"></path>
                        </g>
                        <g transform="matrix(1,0,0,1,-195.712,-74.327)">
                            <path d="M266.721,91C267.383,91 267.929,90.455 267.929,89.792C267.929,89.13 267.383,88.585 266.721,88.585L250.165,88.585C249.503,88.585 248.957,89.13 248.957,89.792C248.957,90.455 249.503,91 250.165,91L266.721,91Z" style="fill-rule:nonzero;"></path>
                        </g>
                        <g transform="matrix(1,0,0,1,-91.97,-215.219)">
                            <path d="M134.494,256.867L130.19,261.171L127.374,258.355C127.148,258.129 126.84,258.001 126.52,258.001C125.858,258.001 125.313,258.546 125.313,259.209C125.313,259.528 125.44,259.836 125.666,260.062L129.336,263.732C129.562,263.959 129.87,264.086 130.19,264.086C130.51,264.086 130.818,263.959 131.044,263.732L136.202,258.575C136.428,258.349 136.556,258.041 136.556,257.721C136.556,257.058 136.011,256.513 135.348,256.513C135.028,256.513 134.72,256.641 134.494,256.867Z" style="fill-rule:nonzero;"></path>
                        </g>
                        <g transform="matrix(1,0,0,1,-173.419,-361.505)">
                            <path d="M234.373,434.49L231.899,434.131L230.793,431.889C230.487,431.269 229.852,430.875 229.161,430.875C228.469,430.875 227.834,431.269 227.528,431.889L226.422,434.131L223.948,434.49C223.057,434.62 222.39,435.392 222.39,436.292C222.39,436.782 222.588,437.252 222.939,437.595L224.729,439.34L224.306,441.804C224.288,441.907 224.279,442.012 224.279,442.117C224.279,443.114 225.1,443.935 226.097,443.935C226.394,443.935 226.686,443.862 226.948,443.723L229.161,442.56L231.374,443.723C231.635,443.86 231.926,443.932 232.221,443.932C233.22,443.932 234.042,443.11 234.042,442.111C234.042,442.008 234.033,441.905 234.016,441.804L233.593,439.34L235.383,437.595C235.734,437.252 235.932,436.782 235.932,436.292C235.932,435.392 235.265,434.62 234.374,434.49L234.373,434.49ZM231.682,437.829C231.253,438.247 231.057,438.851 231.158,439.441L231.43,441.026L230.007,440.278C229.477,439.999 228.842,439.999 228.312,440.278L226.889,441.026L227.161,439.441C227.262,438.851 227.066,438.247 226.637,437.829L225.485,436.707L227.076,436.476C227.669,436.389 228.183,436.015 228.447,435.476L229.159,434.034L229.871,435.476C230.135,436.015 230.649,436.389 231.242,436.476L232.833,436.707L231.682,437.829Z" style="fill-rule:nonzero;"></path>
                        </g>
                        <g transform="matrix(1,0,0,1,-251.284,-361.505)">
                            <path d="M327.18,434.49L324.706,434.131L323.6,431.889C323.294,431.269 322.659,430.875 321.968,430.875C321.276,430.875 320.641,431.269 320.335,431.889L319.229,434.131L316.755,434.49C315.864,434.62 315.197,435.392 315.197,436.292C315.197,436.782 315.395,437.252 315.746,437.595L317.536,439.34L317.113,441.804C317.096,441.906 317.087,442.009 317.087,442.112C317.087,443.111 317.909,443.933 318.908,443.933C319.203,443.933 319.494,443.861 319.755,443.724L321.968,442.561L324.181,443.724C324.442,443.861 324.733,443.933 325.028,443.933C326.027,443.933 326.849,443.111 326.849,442.112C326.849,442.009 326.84,441.906 326.823,441.805L326.4,439.341L328.19,437.596C328.541,437.253 328.739,436.783 328.739,436.293C328.739,435.393 328.072,434.621 327.181,434.491L327.18,434.49ZM324.49,437.829C324.061,438.247 323.865,438.851 323.966,439.441L324.238,441.026L322.815,440.278C322.285,439.999 321.65,439.999 321.12,440.278L319.696,441.026L319.968,439.441C320.069,438.851 319.873,438.247 319.444,437.829L318.292,436.707L319.883,436.476C320.476,436.389 320.99,436.015 321.254,435.476L321.966,434.034L322.678,435.476C322.942,436.015 323.456,436.389 324.049,436.476L325.64,436.707L324.49,437.829Z" style="fill-rule:nonzero;"></path>
                        </g>
                        <g transform="matrix(1,0,0,1,-329.15,-361.505)">
                            <path d="M419.987,434.49L417.513,434.131L416.407,431.889C416.101,431.269 415.466,430.875 414.775,430.875C414.083,430.875 413.448,431.269 413.142,431.889L412.036,434.131L409.562,434.49C408.671,434.62 408.004,435.392 408.004,436.292C408.004,436.782 408.202,437.252 408.553,437.595L410.343,439.34L409.92,441.804C409.902,441.907 409.893,442.012 409.893,442.117C409.893,443.114 410.714,443.935 411.711,443.935C412.007,443.935 412.299,443.863 412.561,443.724L414.774,442.561L416.987,443.724C417.248,443.861 417.539,443.933 417.834,443.933C418.833,443.933 419.655,443.111 419.655,442.112C419.655,442.009 419.646,441.906 419.629,441.805L419.206,439.341L421,437.6C421.351,437.257 421.549,436.787 421.549,436.297C421.549,435.397 420.882,434.625 419.991,434.495L419.987,434.49ZM417.297,437.829C416.868,438.247 416.672,438.851 416.773,439.441L417.045,441.026L415.622,440.278C415.092,439.999 414.457,439.999 413.927,440.278L412.504,441.026L412.776,439.441C412.877,438.851 412.681,438.247 412.252,437.829L411.1,436.707L412.691,436.476C413.284,436.389 413.798,436.014 414.062,435.476L414.774,434.034L415.486,435.476C415.75,436.015 416.264,436.389 416.857,436.476L418.448,436.707L417.297,437.829Z" style="fill-rule:nonzero;"></path>
                        </g>
                        <g transform="matrix(1,0,0,1,-27.074,-280.477)">
                            <path d="M58.875,337.55L56.714,337.236L55.748,335.278C55.452,334.679 54.839,334.298 54.171,334.298C53.503,334.298 52.89,334.679 52.594,335.278L51.628,337.236L49.467,337.55C48.606,337.675 47.961,338.421 47.961,339.291C47.961,339.765 48.153,340.219 48.492,340.55L50.056,342.074L49.687,344.226C49.67,344.326 49.661,344.427 49.661,344.528C49.661,345.492 50.453,346.284 51.417,346.284C51.703,346.284 51.986,346.214 52.239,346.08L54.172,345.064L56.1,346.08C56.352,346.213 56.633,346.282 56.918,346.282C57.883,346.282 58.677,345.488 58.677,344.523C58.677,344.423 58.669,344.324 58.652,344.226L58.283,342.074L59.847,340.55C60.186,340.219 60.378,339.765 60.378,339.291C60.378,338.421 59.733,337.675 58.872,337.55L58.875,337.55ZM56.353,340.585C55.939,340.989 55.749,341.572 55.847,342.142L56.047,343.324L54.986,342.766C54.474,342.497 53.861,342.497 53.349,342.766L52.288,343.324L52.488,342.142C52.586,341.572 52.396,340.989 51.982,340.585L51.123,339.748L52.309,339.576C52.882,339.493 53.378,339.133 53.634,338.614L54.165,337.539L54.695,338.614C54.951,339.133 55.447,339.493 56.019,339.576L57.205,339.748L56.353,340.585Z" style="fill-rule:nonzero;"></path>
                        </g>
                    </g>
                </g>
            </g>
        </g>
    </g>
</svg>