<svg xmlns="http://www.w3.org/2000/svg" xmlnsXlink="http://www.w3.org/1999/xlink" xmlnsSerif="http://www.serif.com/" width="100%" height="100%" viewBox="0 0 100 100" xmlSpace="preserve" style="fill-rule:evenodd;clip-rule:evenodd;stroke-linejoin:round;stroke-miterlimit:2;">
    <g id="Artboard1" transform="matrix(2,0,0,2,0,0)">
        <rect x="0" y="0" width="50" height="50" style="fill:none;"></rect>
        <g id="_003-immigration.svg" serifId="003-immigration.svg" transform="matrix(0.0906354,0,0,0.0906354,25,25)">
            <g transform="matrix(1,0,0,1,-256,-256)">
                <path d="M476,43.051L442.585,43.051L442.585,30.634C442.585,27.342 439.877,24.634 436.585,24.634L255.453,24.634C252.161,24.634 249.453,27.342 249.453,30.634L249.453,43.051L206.038,43.051C191.78,43.066 180.053,54.793 180.038,69.051L180.038,112.283C164.516,100.343 145.473,93.865 125.89,93.865C77.172,93.865 37.083,133.954 37.083,182.672C37.083,182.687 37.083,182.702 37.083,182.717L37.083,209.61C30.198,212.021 24.998,217.784 23.305,224.879C20.109,237.945 27.196,251.499 39.75,256.331L39.75,262.069C39.772,293.825 57.123,323.158 84.944,338.469L84.944,364.828L37.611,385.028C37.5,385.076 37.391,385.128 37.284,385.18C21.848,392.961 11.513,408.226 10.021,425.448C10.007,425.613 10,425.78 10,425.948L10,481.369C10,484.661 12.708,487.369 16,487.369L242.769,487.369C246.061,487.369 248.769,484.661 248.769,481.369L248.769,426.878L476,426.878C490.257,426.863 501.985,415.135 502,400.878L502,69.049C501.984,54.792 490.257,43.066 476,43.051ZM261.453,36.634L430.585,36.634L430.585,59.019L261.453,59.019L261.453,36.634ZM49.083,182.717C49.083,140.555 83.777,105.861 125.939,105.861C168.101,105.861 202.795,140.555 202.795,182.717L202.795,210.033C187.927,211.64 142.54,214.065 106.095,189.899C131.137,186.561 161.663,178.873 184.303,161.51C185.841,160.38 186.751,158.583 186.751,156.675C186.751,153.383 184.042,150.675 180.751,150.675C179.389,150.675 178.067,151.138 177.003,151.989C135.816,183.578 62.237,180.246 61.503,180.207C58.238,180.042 55.406,182.571 55.203,185.834L53.403,215.467L49.488,213.457C49.283,213.353 49.136,213.162 49.088,212.938L49.083,182.717ZM51.75,262.069L51.75,251.788C51.75,248.885 49.644,246.378 46.785,245.877C39.727,244.622 34.536,238.427 34.536,231.258C34.536,230.071 34.678,228.888 34.96,227.735C35.613,224.85 37.598,222.439 40.304,221.245C41.347,222.43 42.602,223.409 44.004,224.133L53.804,229.164C54.889,229.722 56.092,230.013 57.312,230.013C61.293,230.013 64.647,226.915 64.964,222.947C64.964,222.909 64.97,222.872 64.972,222.834L66.829,192.349C71.729,192.395 79.307,192.315 88.519,191.673C137.524,233.361 206.876,221.721 209.842,221.2C210.464,221.086 211.063,220.873 211.618,220.571C215.248,221.319 218.124,224.124 218.961,227.735C219.243,228.889 219.386,230.073 219.386,231.262C219.386,238.429 214.194,244.624 207.137,245.877C204.278,246.378 202.172,248.885 202.172,251.788L202.172,262.069C202.022,303.224 168.118,337.004 126.963,337.004C85.809,337.004 51.905,303.224 51.755,262.069L51.75,262.069ZM180.041,331.209L180.041,367.478L173.825,364.826L173.825,335.584C175.963,334.216 178.035,332.758 180.041,331.209ZM161.825,342L161.825,363.542C141.048,372.074 117.721,372.074 96.944,363.542L96.944,343.954C118.009,351.675 141.263,350.974 161.825,342ZM236.769,475.371L22,475.371L22,426.2C23.205,413.296 30.954,401.876 42.5,395.99L92.464,374.666C116.117,384.362 142.662,384.362 166.315,374.666L216.28,395.991C227.822,401.879 235.567,413.299 236.769,426.2L236.769,475.371ZM490,400.88C489.993,408.557 483.677,414.873 476,414.88L246.652,414.88C242.627,401.989 233.541,391.266 221.485,385.18C221.378,385.125 221.269,385.08 221.158,385.028L192.041,372.6L192.041,320.052C206.301,304.113 214.184,283.456 214.167,262.069L214.167,256.331C226.721,251.5 233.807,237.947 230.612,224.881C228.743,217.045 222.621,210.891 214.795,208.981L214.795,182.717C214.813,160.816 206.701,139.67 192.041,123.4L192.041,69.049C192.048,61.372 198.364,55.056 206.041,55.049L249.456,55.049L249.456,65.017C249.456,68.309 252.164,71.017 255.456,71.017L436.585,71.017C439.877,71.017 442.585,68.309 442.585,65.017L442.585,55.051L476,55.051C483.677,55.058 489.993,61.374 490,69.051L490,400.88Z" style="fill-rule:nonzero;"></path>
                <path d="M446.584,221.686L402.718,221.686C399.426,221.686 396.718,224.394 396.718,227.686C396.718,230.978 399.426,233.686 402.718,233.686L446.584,233.686C449.876,233.686 452.584,230.978 452.584,227.686C452.584,224.394 449.876,221.686 446.584,221.686Z" style="fill-rule:nonzero;"></path>
                <path d="M362.157,233.686L376.872,233.686C380.164,233.686 382.872,230.978 382.872,227.686C382.872,224.394 380.164,221.686 376.872,221.686L362.157,221.686C358.865,221.686 356.157,224.394 356.157,227.686C356.157,230.978 358.865,233.686 362.157,233.686Z" style="fill-rule:nonzero;"></path>
                <path d="M446.584,286.582L431.689,286.582C428.397,286.582 425.689,289.29 425.689,292.582C425.689,295.874 428.397,298.582 431.689,298.582L446.584,298.582C449.876,298.582 452.584,295.874 452.584,292.582C452.584,289.29 449.876,286.582 446.584,286.582Z" style="fill-rule:nonzero;"></path>
                <path d="M410.937,298.582C414.229,298.582 416.937,295.874 416.937,292.582C416.937,289.29 414.229,286.582 410.937,286.582L331.478,286.582C328.186,286.582 325.478,289.29 325.478,292.582C325.478,295.874 328.186,298.582 331.478,298.582L410.937,298.582Z" style="fill-rule:nonzero;"></path>
                <path d="M310.437,286.582L305.076,286.582C301.784,286.582 299.076,289.29 299.076,292.582C299.076,295.874 301.784,298.582 305.076,298.582L310.437,298.582C313.729,298.582 316.437,295.874 316.437,292.582C316.437,289.29 313.729,286.582 310.437,286.582Z" style="fill-rule:nonzero;"></path>
                <path d="M245.212,286.582C241.92,286.582 239.212,289.29 239.212,292.582C239.212,295.874 241.92,298.582 245.212,298.582L279.23,298.582C282.522,298.582 285.23,295.874 285.23,292.582C285.23,289.29 282.522,286.582 279.23,286.582L245.212,286.582Z" style="fill-rule:nonzero;"></path>
                <path d="M446.584,346.563L412.249,346.563C408.957,346.563 406.249,349.271 406.249,352.563C406.249,355.855 408.957,358.563 412.249,358.563L446.584,358.563C449.876,358.563 452.584,355.855 452.584,352.563C452.584,349.271 449.876,346.563 446.584,346.563Z" style="fill-rule:nonzero;"></path>
                <path d="M390.714,346.563L386.4,346.563C383.108,346.563 380.4,349.271 380.4,352.563C380.4,355.855 383.108,358.563 386.4,358.563L390.711,358.563C394.003,358.563 396.711,355.855 396.711,352.563C396.711,349.271 394.003,346.563 390.711,346.563L390.714,346.563Z" style="fill-rule:nonzero;"></path>
                <path d="M369.515,346.563L336.9,346.563C333.608,346.563 330.9,349.271 330.9,352.563C330.9,355.855 333.608,358.563 336.9,358.563L369.515,358.563C372.807,358.563 375.515,355.855 375.515,352.563C375.515,349.271 372.807,346.563 369.515,346.563Z" style="fill-rule:nonzero;"></path>
                <path d="M310.437,346.563L245.212,346.563C241.92,346.563 239.212,349.271 239.212,352.563C239.212,355.855 241.92,358.563 245.212,358.563L310.437,358.563C313.729,358.563 316.437,355.855 316.437,352.563C316.437,349.271 313.729,346.563 310.437,346.563Z" style="fill-rule:nonzero;"></path>
                <path d="M446.584,170.6L442.712,170.6C439.42,170.6 436.712,173.308 436.712,176.6C436.712,179.892 439.42,182.6 442.712,182.6L446.584,182.6C449.876,182.6 452.584,179.892 452.584,176.6C452.584,173.308 449.876,170.6 446.584,170.6Z" style="fill-rule:nonzero;"></path>
                <path d="M374.339,182.6L416.867,182.6C420.159,182.6 422.867,179.892 422.867,176.6C422.867,173.308 420.159,170.6 416.867,170.6L374.339,170.6C371.047,170.6 368.339,173.308 368.339,176.6C368.339,179.892 371.047,182.6 374.339,182.6Z" style="fill-rule:nonzero;"></path>
                <path d="M446.584,120.6L403.717,120.6C400.425,120.6 397.717,123.308 397.717,126.6C397.717,129.892 400.425,132.6 403.717,132.6L446.584,132.6C449.876,132.6 452.584,129.892 452.584,126.6C452.584,123.308 449.876,120.6 446.584,120.6Z" style="fill-rule:nonzero;"></path>
                <path d="M374.339,132.6L377.872,132.6C381.164,132.6 383.872,129.892 383.872,126.6C383.872,123.308 381.164,120.6 377.872,120.6L374.339,120.6C371.047,120.6 368.339,123.308 368.339,126.6C368.339,129.892 371.047,132.6 374.339,132.6Z" style="fill-rule:nonzero;"></path>
                <path d="M287.875,237.92C324.082,237.92 353.875,208.127 353.875,171.92C353.875,135.713 324.082,105.92 287.875,105.92C251.668,105.92 221.875,135.713 221.875,171.92C221.916,208.111 251.684,237.879 287.875,237.92ZM287.875,117.92C317.499,117.92 341.875,142.296 341.875,171.92C341.875,201.544 317.499,225.92 287.875,225.92C258.251,225.92 233.875,201.544 233.875,171.92C233.909,142.309 258.264,117.954 287.875,117.92Z" style="fill-rule:nonzero;"></path>
                <path d="M270.268,198.079C272.595,200.406 276.426,200.406 278.753,198.079L322.585,154.247C323.689,153.125 324.308,151.613 324.308,150.039C324.308,146.748 321.599,144.039 318.308,144.039C316.734,144.039 315.222,144.658 314.1,145.762L274.511,185.351L261.649,172.49C260.52,171.33 258.968,170.674 257.349,170.674C254.057,170.674 251.349,173.383 251.349,176.674C251.349,178.293 252.004,179.845 253.164,180.974L270.268,198.079Z" style="fill-rule:nonzero;"></path>
            </g>
        </g>
    </g>
</svg>