<svg xmlns="http://www.w3.org/2000/svg" xmlnsXlink="http://www.w3.org/1999/xlink" xmlnsSerif="http://www.serif.com/" width="100%" height="100%" viewBox="0 0 100 100" xmlSpace="preserve" style="fill-rule:evenodd;clip-rule:evenodd;stroke-linejoin:round;stroke-miterlimit:2;">
    <g id="Artboard1" transform="matrix(2,0,0,2,0,0)">
        <rect x="0" y="0" width="50" height="50" style="fill:none;"></rect>
        <g id="headhunting.svg" transform="matrix(0.504421,0,0,0.504421,25,25)">
            <g transform="matrix(1,0,0,1,-41.2775,-41.6865)">
                <clipPath id="_clip1">
                    <rect x="0" y="0" width="82.555" height="83.373"></rect>
                </clipPath>
                <g clip-path="url(#_clip1)">
                    <g transform="matrix(1,0,0,1,-265.373,-163.003)">
                        <path d="M338.783,194.709L317.724,194.709C317.054,194.709 316.503,195.26 316.503,195.93C316.503,196.6 317.054,197.151 317.724,197.151L338.783,197.151C339.453,197.151 340.004,196.6 340.004,195.93C340.004,195.26 339.453,194.709 338.783,194.709Z" style="fill-rule:nonzero;"></path>
                    </g>
                    <g transform="matrix(1,0,0,1,-265.373,-200.853)">
                        <path d="M338.783,239.922L317.724,239.922C317.054,239.922 316.503,240.473 316.503,241.143C316.503,241.813 317.054,242.364 317.724,242.364L338.783,242.364C339.453,242.364 340.004,241.813 340.004,241.143C340.004,240.473 339.453,239.922 338.783,239.922Z" style="fill-rule:nonzero;"></path>
                    </g>
                    <g transform="matrix(1,0,0,1,-265.373,-238.704)">
                        <path d="M340,286.356C340,285.686 339.449,285.135 338.779,285.135L317.724,285.135C317.054,285.135 316.503,285.686 316.503,286.356C316.503,287.026 317.054,287.577 317.724,287.577L338.783,287.577C339.451,287.575 340,287.024 340,286.356Z" style="fill-rule:nonzero;"></path>
                    </g>
                    <g transform="matrix(1,0,0,1,-265.373,-276.555)">
                        <path d="M317.724,330.348C317.054,330.348 316.503,330.899 316.503,331.569C316.503,332.239 317.054,332.79 317.724,332.79L328.253,332.79C328.923,332.79 329.474,332.239 329.474,331.569C329.474,330.899 328.923,330.348 328.253,330.348L317.724,330.348Z" style="fill-rule:nonzero;"></path>
                    </g>
                    <g transform="matrix(1,0,0,1,-2.512,0)">
                        <path d="M83.3,14.361L70.707,1.77C69.574,0.637 68.036,-0 66.434,-0L25,0C21.687,0.004 18.962,2.729 18.958,6.042L18.958,18.542C18.958,19.212 19.509,19.763 20.179,19.763C20.849,19.763 21.4,19.212 21.4,18.542L21.4,6.042C21.4,4.067 23.025,2.442 25,2.442L66.434,2.442C66.695,2.442 66.955,2.47 67.21,2.526L67.21,13.648C67.213,15.957 69.111,17.855 71.42,17.858L82.54,17.858C82.596,18.113 82.625,18.373 82.625,18.634L82.625,77.334C82.625,79.309 81,80.934 79.025,80.934L62.619,80.934C64.067,78.761 63.78,75.842 61.936,73.993L50.836,62.893C50.051,62.109 48.877,61.852 47.836,62.235L45.446,59.845C48.338,55.817 49.894,50.981 49.894,46.022C49.894,33.021 39.196,22.322 26.194,22.322C13.193,22.322 2.494,33.021 2.494,46.022C2.494,59.024 13.193,69.722 26.194,69.722C31.15,69.722 35.983,68.168 40.01,65.279L42.4,67.665C42.017,68.706 42.274,69.88 43.058,70.665L53.33,80.931L25,80.931C23.025,80.931 21.4,79.306 21.4,77.331L21.4,73.417C21.4,72.747 20.849,72.196 20.179,72.196C19.509,72.196 18.958,72.747 18.958,73.417L18.958,77.331C18.962,80.644 21.687,83.369 25,83.373L79.025,83.373C82.338,83.369 85.063,80.644 85.067,77.331L85.067,18.631C85.066,17.029 84.429,15.491 83.297,14.358L83.3,14.361ZM11.168,61.049C7.185,57.065 4.945,51.657 4.945,46.024C4.945,34.366 14.538,24.773 26.196,24.773C37.854,24.773 47.447,34.366 47.447,46.024C47.447,50.802 45.836,55.443 42.875,59.193C41.844,60.493 40.667,61.67 39.366,62.7C30.947,69.343 18.754,68.629 11.168,61.049ZM41.934,63.733C42.63,63.113 43.29,62.453 43.91,61.756L45.921,63.767L43.94,65.749L41.929,63.738L41.934,63.733ZM55.89,80.033L44.79,68.933C44.714,68.857 44.67,68.753 44.67,68.645C44.67,68.536 44.714,68.432 44.79,68.356L48.531,64.615C48.69,64.457 48.949,64.457 49.108,64.615L60.208,75.715C60.783,76.288 61.107,77.067 61.107,77.879C61.107,79.554 59.728,80.933 58.053,80.933C57.241,80.933 56.462,80.609 55.889,80.034L55.89,80.033ZM69.652,13.648L69.652,4.169L80.9,15.415L71.42,15.415C70.451,15.414 69.654,14.617 69.652,13.648Z" style="fill-rule:nonzero;"></path>
                    </g>
                    <g transform="matrix(1,0,0,1,-126.364,-40.739)">
                        <path d="M177.31,48.663L153.082,48.663C151.641,48.665 150.457,49.849 150.455,51.29L150.455,55.97C150.457,57.411 151.641,58.595 153.082,58.597L177.31,58.597C178.751,58.595 179.935,57.411 179.937,55.97L179.937,51.29C179.935,49.849 178.751,48.665 177.31,48.663ZM177.494,55.97C177.494,56.071 177.411,56.154 177.31,56.154L153.082,56.154C152.981,56.154 152.898,56.071 152.898,55.97L152.898,51.29C152.898,51.189 152.981,51.106 153.082,51.106L177.31,51.106C177.411,51.106 177.494,51.189 177.494,51.29L177.494,55.97Z" style="fill-rule:nonzero;"></path>
                    </g>
                    <g transform="matrix(1,0,0,1,-28.537,-139.875)">
                        <path d="M65.531,199.207C69.059,195.678 71.043,190.888 71.043,185.898C71.043,175.571 62.546,167.074 52.219,167.074C42.968,167.074 35.02,173.893 33.614,183.036C33.605,183.097 33.6,183.159 33.6,183.221C33.6,183.89 34.151,184.442 34.821,184.442C35.421,184.442 35.937,183.999 36.028,183.405C37.252,175.448 44.169,169.513 52.22,169.513C61.207,169.513 68.602,176.908 68.602,185.895C68.602,189.863 67.16,193.698 64.547,196.684C63.991,195.562 63.055,194.674 61.905,194.178C60.136,193.549 58.298,193.131 56.43,192.934L56.423,191.392C57.942,190.278 58.962,188.608 59.26,186.747C60.069,186.409 60.598,185.612 60.593,184.735C60.582,183.117 60.584,180.435 60.584,178.871C60.581,177.42 59.526,176.169 58.097,175.921C57.819,174.525 56.584,173.509 55.16,173.507L49.26,173.507C46.238,173.51 43.752,175.996 43.748,179.018L43.748,184.757C43.749,185.621 44.269,186.405 45.065,186.742C45.356,188.546 46.325,190.172 47.773,191.287L47.78,192.97C45.914,193.183 44.08,193.616 42.316,194.26C41.244,194.742 40.369,195.576 39.836,196.623C37.885,194.383 36.585,191.65 36.078,188.723C35.977,188.141 35.466,187.711 34.875,187.711C34.205,187.711 33.654,188.263 33.654,188.932C33.654,189.003 33.66,189.073 33.672,189.142C35.242,198.113 43.109,204.722 52.216,204.722C57.206,204.722 61.997,202.738 65.526,199.21L65.531,199.207ZM49.265,175.951L55.165,175.951C55.467,175.952 55.715,176.2 55.716,176.502C55.717,177.5 56.538,178.321 57.536,178.322L57.596,178.322C57.898,178.323 58.146,178.571 58.147,178.873L58.147,179.528L56.671,179.39C55.216,179.257 53.755,179.595 52.507,180.356C51.828,180.772 51.047,180.992 50.25,180.992L46.2,180.992L46.2,179.02C46.202,177.339 47.584,175.955 49.265,175.951ZM46.2,184.5L46.2,183.436L50.249,183.436C51.496,183.435 52.719,183.089 53.781,182.436C54.578,181.95 55.511,181.734 56.441,181.819L58.141,181.979C58.141,182.731 58.141,183.724 58.148,184.491C57.46,184.612 56.941,185.194 56.898,185.891C56.745,188.378 54.656,190.342 52.164,190.342C49.672,190.342 47.583,188.378 47.43,185.891C47.381,185.205 46.875,184.632 46.2,184.5ZM52.173,192.793C52.786,192.793 53.397,192.714 53.99,192.559L53.99,193.24C53.991,193.547 54.059,193.85 54.19,194.128C53.575,194.543 52.851,194.765 52.109,194.766L52.1,194.766C51.365,194.767 50.646,194.551 50.034,194.145C50.165,193.867 50.234,193.563 50.234,193.255L50.234,192.525C50.864,192.702 51.515,192.791 52.169,192.791L52.173,192.793ZM41.753,198.5C41.918,197.615 42.505,196.865 43.324,196.491C44.76,195.969 46.252,195.617 47.77,195.444C48.924,196.578 50.481,197.213 52.099,197.209L52.118,197.209C53.748,197.208 55.313,196.561 56.466,195.409C57.985,195.57 59.481,195.909 60.921,196.419C61.819,196.791 62.46,197.608 62.608,198.569C56.557,203.516 47.771,203.486 41.753,198.5Z" style="fill-rule:nonzero;"></path>
                    </g>
                </g>
            </g>
        </g>
    </g>
</svg>