<svg width="700pt" height="700pt" version="1.1" viewBox="0 0 700 700" xmlns="http://www.w3.org/2000/svg">
 <path d="m336.08 147.61v133.51c-4.3203-7.0273-9.2539-13.777-15.293-19.832-15.195-15.219-36.734-25.781-63.34-25.758v27.727c19.668 0 32.82 6.8164 43.652 17.609 10.836 10.859 18.785 26.289 24.133 42.309 10.688 32.066 10.844 65.043 10.844 65.043v101.79h27.82l0.003907-101.79s0-32.977 10.793-65.043c5.3477-16.023 13.348-31.453 24.184-42.309 10.832-10.793 23.988-17.609 43.656-17.609v-27.727c-26.609 0-48.125 10.539-63.324 25.758-6.0586 6.0742-11.008 12.848-15.363 19.918v-133.59z"/>
 <path d="m275.99 204.84h-0.019532c-0.35938-0.0625-0.72656-0.0625-1.0859 0l-111.29 40.914v-0.003906c-1.293 0.4375-2.168 1.6484-2.168 3.0156s0.875 2.582 2.168 3.0156l111.29 40.848v0.003906c1.3125 0.44922 2.7656 0 3.5898-1.1133 0.82813-1.1094 0.83984-2.6289 0.027344-3.7539-16.883-23.535-16.945-54.945 0-77.996 0.75391-0.96094 0.89062-2.2656 0.35547-3.3594-0.53906-1.0977-1.6523-1.7891-2.8711-1.7852z" fill-rule="evenodd"/>
 <path d="m423.87 205.05c-1.1914 0.046875-2.2617 0.75781-2.7617 1.8438-0.50391 1.082-0.35547 2.3594 0.38281 3.2969 16.953 23.051 16.816 54.457 0 77.996-0.83984 1.1367-0.83203 2.6875 0.023437 3.8164 0.85156 1.125 2.3438 1.5547 3.6641 1.0508l111.22-40.848h0.003906c1.293-0.4375 2.168-1.6484 2.168-3.0156 0-1.3672-0.875-2.582-2.168-3.0156l-111.22-40.914h-0.003906c-0.40625-0.078125-0.82031-0.078125-1.2266 0z" fill-rule="evenodd"/>
 <path d="m349.68 69.992c-1.2461 0.10937-2.3125 0.9375-2.7266 2.1172l-40.871 111.22v0.003907c-0.52734 1.3203-0.10938 2.832 1.0195 3.6992 1.1289 0.86328 2.6992 0.875 3.8398 0.023438 23.539-16.91 55.035-17.039 78.086 0 1.1289 0.80469 2.6484 0.78516 3.7578-0.046875 1.1055-0.83203 1.5469-2.2852 1.0938-3.5938l-40.926-111.25c-0.48438-1.375-1.8398-2.2461-3.2891-2.1133z" fill-rule="evenodd"/>
 <path transform="matrix(21.165 0 0 21.165 70 -5726.1)" d="m24.739 283.77c0 6.3566-5.1531 11.509-11.509 11.509-6.3566 0-11.509-5.1529-11.509-11.509 0-6.3564 5.1529-11.509 11.509-11.509 6.3564 0 11.509 5.1531 11.509 11.509" fill="none" stroke="#e65100" stroke-linecap="round" stroke-width=".79375"/>
</svg>