<?xml version="1.0" encoding="UTF-8"?>
<svg width="700pt" height="700pt" version="1.1" viewBox="0 0 700 700" xmlns="http://www.w3.org/2000/svg" xmlns:xlink="http://www.w3.org/1999/xlink">
 <defs>
  
 </defs>
 <g>
  <path d="m350 93.332c-103.09 0-186.67 83.574-186.67 186.67s83.574 186.67 186.67 186.67 186.67-83.574 186.67-186.67-83.574-186.67-186.67-186.67zm0 11.312c96.844 0 175.36 78.512 175.36 175.36s-78.512 175.36-175.36 175.36-175.36-78.512-175.36-175.36 78.512-175.36 175.36-175.36z"/>
  <path d="m388.07 169.17 12.863 44.266 44.012-0.81641-14.34 43.758 36.066 26.543-36.066 26.539 14.34 43.762-44.012-0.81641-12.863 44.266-35.148-27.863-35.152 27.863-12.863-44.266-44.012 0.81641 14.34-43.762-36.062-26.539 36.062-26.543-14.34-43.758 44.012 0.81641 12.863-44.266 35.152 27.859zm5.1992 80.918-50.352 48.414-30.855-25.43c-3.793-3.125-9.793-2.9961-13.402 0.28125-3.6094 3.2812-3.4648 8.4727 0.32812 11.598l37.914 31.25c3.8672 3.1875 10.012 2.9844 13.586-0.45312l56.875-54.684c3.5-3.3711 3.1875-8.5547-0.70703-11.586-3.8906-3.0312-9.8828-2.7578-13.387 0.60938z"/>
     <path transform="matrix(21.165 0 0 21.165 70 -5726.1)" d="m24.739 283.77c0 6.3566-5.1531 11.509-11.509 11.509-6.3566 0-11.509-5.1529-11.509-11.509 0-6.3564 5.1529-11.509 11.509-11.509 6.3564 0 11.509 5.1531 11.509 11.509" fill="none" stroke="#e65100" stroke-linecap="round" stroke-width=".79375"/>
 </g>
</svg>
