<?xml version="1.0" encoding="UTF-8"?>
<svg width="700pt" height="700pt" version="1.1" viewBox="0 0 700 700" xmlns="http://www.w3.org/2000/svg" xmlns:xlink="http://www.w3.org/1999/xlink">
 <defs>

 </defs>
 <g>
  <path d="m386.31 286.23h-3.1719l-33.25 34.781-33.141-34.781h-3.1719c-63.109 0-114.41 51.297-114.41 114.41v43.422h301.33l0.21875-43.312c0-63.109-51.406-114.52-114.41-114.52zm-75.906 14.875 39.484 41.234 39.484-41.344c53.375 1.6406 96.578 46.156 96.578 99.641l-0.10938 28.656h-271.91v-28.656c0-53.375 43.203-97.891 96.469-99.531z"/>
  <path d="m451.72 171.39-46.703-55.453h-110.36l-46.812 55.453 101.94 118.34zm-53.594-40.688 28 33.25h-35.875l-24.719-33.25h32.594zm-41.016 33.25v-19.797l14.656 19.797zm19.688 14.766-19.578 56.109v-56.109zm49.109 0-56.438 65.516 22.969-65.516zm-83.453-34.125v19.359h-14.438zm-8.2031-13.891-24.719 33.25h-36.094l28.109-33.25h32.703zm-26.797 48.016 23.188 66.062-56.984-66.062zm35 0v55.234l-19.25-55.234z"/>

   <path transform="matrix(21.165 0 0 21.165 70 -5726.1)" d="m24.739 283.77c0 6.3566-5.1531 11.509-11.509 11.509-6.3566 0-11.509-5.1529-11.509-11.509 0-6.3564 5.1529-11.509 11.509-11.509 6.3564 0 11.509 5.1531 11.509 11.509" fill="none" stroke="#e65100" stroke-linecap="round" stroke-width=".79375"/>
 </g>
</svg>
